<svg xmlns="http://www.w3.org/2000/svg" width="768" height="403" fill="none"><g clip-path="url(#a)"><path fill="url(#b)" d="M847.799 43.298c15.432 6.37 30.006 14.015 44.152 22.933 94.732 58.606 154.739 172.844 137.169 281.987-18 110.841-136.312 268.396-253.334 291.329-38.151 7.644-77.158-2.973-114.451-14.439-62.583-19.111-121.309-50.112-183.035-67.949-24.004-6.794-50.152-8.493-73.3.85-40.293 16.137-50.152 50.961-67.298 86.209-19.29 39.92-51.867 73.47-91.303 94.279-81.016 42.468-185.607 22.508-260.622-23.357-111.449-67.949-151.314-201.723-114.45-323.181 9.43-31.426 24.433-62.427 49.295-84.511 42.437-38.221 106.306-45.016 162.031-31.001 38.579 9.767 73.728 28.453 107.163 48.838 27.434 16.987 52.725 40.344 86.588 40.344 68.585.425 89.589-87.059 111.45-135.897 28.72-64.551 77.158-121.033 137.169-158.83C621.899 9.325 742.351-1.292 847.799 43.299Z"/><path fill="url(#c)" d="M847.836 43.557c15.424 6.368 29.991 14.011 44.13 22.927 94.688 58.594 154.674 172.809 137.104 281.93-17.99 110.818-136.247 268.342-253.215 291.27-38.132 7.642-77.121-2.972-114.397-14.436-62.554-19.107-121.252-50.102-182.949-67.935-23.994-6.794-50.129-8.492-73.266.849-40.274 16.135-50.129 50.951-67.267 86.192-19.28 39.912-51.843 73.455-91.26 94.26-80.978 42.459-185.52 22.503-260.5-23.353-111.398-67.935-151.244-201.681-114.397-323.114 9.426-31.42 24.422-62.415 49.272-84.494 42.417-38.214 106.257-45.007 161.955-30.995 38.561 9.765 73.694 28.447 107.114 48.828 27.421 16.983 52.699 40.336 86.547 40.336 68.553.424 89.547-87.041 111.398-135.87 28.707-64.538 77.122-121.008 137.105-158.797 96.831-61.566 217.226-72.18 322.626-27.598Z"/><path fill="url(#d)" d="M-161.68 915.588c-193.751-144.815-80.587-463.749 105.878-561.425 69.87-36.522 151.314-50.537 229.758-40.344 70.728 9.342 159.03 33.124 231.473 5.945 54.867-20.809 80.158-72.195 108.878-118.91 79.729-129.952 280.768-154.158 380.644-31.001 36.864 45.44 51.867 108.717 33.863 164.35-42.436 129.102-184.749 73.894-265.336 143.117-32.149 27.604-40.722 82.812-59.583 119.759-19.289 37.796-42.865 73.894-68.156 108.293-53.153 72.62-117.879 138.87-192.465 190.256C194.531 998.4 8.496 1028.98-148.82 924.931c-4.287-2.973-8.573-5.946-12.86-9.343Z"/><path fill="url(#e)" d="M-161.68 915.588c-193.751-144.815-80.587-463.749 105.878-561.425 69.87-36.522 151.314-50.537 229.758-40.344 70.728 9.342 159.03 33.124 231.473 5.945 54.867-20.809 80.158-72.195 108.878-118.91 79.729-129.952 280.768-154.158 380.644-31.001 36.864 45.44 51.867 108.717 33.863 164.35-42.436 129.102-184.749 73.894-265.336 143.117-32.149 27.604-40.722 82.812-59.583 119.759-19.289 37.796-42.865 73.894-68.156 108.293-53.153 72.62-117.879 138.87-192.465 190.256C194.531 998.4 8.496 1028.98-148.82 924.931c-4.287-2.973-8.573-5.946-12.86-9.343Z"/></g><g clip-path="url(#f)"><path fill="url(#g)" d="M646.271 53.834c14.043 5.851 27.305 12.873 40.177 21.065 86.205 53.833 140.814 158.77 124.821 259.026C794.887 435.74 687.228 580.467 580.74 601.532c-34.716 7.022-70.212-2.73-104.147-13.263-56.95-17.554-110.389-46.032-166.559-62.416-21.843-6.241-45.637-7.802-66.701.78-36.666 14.824-45.638 46.812-61.24 79.191-17.553 36.669-47.198 67.487-83.084 86.602-73.723 39.009-168.9 20.675-237.161-21.456-101.417-62.416-137.693-185.297-104.147-296.865 8.581-28.868 22.233-57.345 44.857-77.63 38.617-35.109 96.737-41.35 147.445-28.477 35.106 8.972 67.092 26.136 97.517 44.861 24.964 15.604 47.978 37.06 78.793 37.06 62.411.39 81.524-79.971 101.417-124.832 26.135-59.295 70.212-111.178 124.822-145.897 88.155-56.564 197.763-66.317 293.719-25.356Z"/><path fill="url(#h)" d="M646.304 54.07c14.036 5.85 27.292 12.871 40.158 21.062 86.164 53.822 140.748 158.738 124.763 258.973C794.85 435.9 687.242 580.597 580.803 601.658c-34.699 7.02-70.179-2.73-104.099-13.261-56.923-17.551-110.337-46.022-166.48-62.403-21.834-6.24-45.617-7.8-66.671.78-36.649 14.821-45.616 46.803-61.211 79.174-17.545 36.662-47.176 67.474-83.046 86.585-73.688 39.002-168.82 20.671-237.049-21.451-101.37-62.404-137.629-185.26-104.099-296.805 8.577-28.862 22.223-57.333 44.836-77.614 38.599-35.102 96.692-41.342 147.376-28.472 35.09 8.971 67.06 26.132 97.472 44.853 24.952 15.6 47.955 37.051 78.756 37.051 62.382.39 81.486-79.954 101.37-124.806 26.122-59.283 70.179-111.155 124.763-145.867 88.114-56.553 197.671-66.303 293.583-25.351Z"/><path fill="url(#i)" d="M-272.335 855.097c-176.31-133.024-73.332-425.988 96.347-515.711 63.581-33.549 137.693-46.422 209.075-37.06 64.361 8.583 144.715 30.428 210.636 5.462 49.929-19.115 72.943-66.317 99.077-109.228 72.552-119.37 255.493-141.606 346.379-28.477 33.545 41.741 47.198 99.865 30.815 150.968-38.617 118.59-168.119 67.877-241.451 131.464-29.255 25.356-37.056 76.069-54.219 110.008-17.553 34.718-39.007 67.877-62.021 99.475-48.368 66.707-107.268 127.562-175.139 174.764-135.353 94.404-304.642 122.491-447.797 26.917-3.9-2.731-7.801-5.461-11.702-8.582Z"/><path fill="url(#j)" d="M-272.335 855.097c-176.31-133.024-73.332-425.988 96.347-515.711 63.581-33.549 137.693-46.422 209.075-37.06 64.361 8.583 144.715 30.428 210.636 5.462 49.929-19.115 72.943-66.317 99.077-109.228 72.552-119.37 255.493-141.606 346.379-28.477 33.545 41.741 47.198 99.865 30.815 150.968-38.617 118.59-168.119 67.877-241.451 131.464-29.255 25.356-37.056 76.069-54.219 110.008-17.553 34.718-39.007 67.877-62.021 99.475-48.368 66.707-107.268 127.562-175.139 174.764-135.353 94.404-304.642 122.491-447.797 26.917-3.9-2.731-7.801-5.461-11.702-8.582Z"/><path fill="url(#k)" d="M193.5 239c-17.397 0-31.5-14.103-31.5-31.5s14.103-31.5 31.5-31.5 31.5 14.103 31.5 31.5-14.103 31.5-31.5 31.5Z"/><path fill="url(#l)" d="M59.5 146C39.342 146 23 129.658 23 109.5S39.342 73 59.5 73 96 89.342 96 109.5 79.658 146 59.5 146Z"/></g><defs><linearGradient id="b" x1="-207.634" x2="1409.4" y1="776.404" y2="-115" gradientUnits="userSpaceOnUse"><stop stop-color="#FF9370"/><stop offset="1" stop-color="#FFDF00"/></linearGradient><linearGradient id="d" x1="913.451" x2="-114.497" y1="-450.926" y2="1208.7" gradientUnits="userSpaceOnUse"><stop stop-color="#FFDF00"/><stop offset="1" stop-color="#FF9370"/></linearGradient><linearGradient id="g" x1="-314.152" x2="1163.73" y1="727.246" y2="-79.828" gradientUnits="userSpaceOnUse"><stop stop-color="#FF9370"/><stop offset="1" stop-color="#FFDF00"/></linearGradient><linearGradient id="i" x1="706.014" x2="-242.163" y1="-400.149" y2="1116.36" gradientUnits="userSpaceOnUse"><stop stop-color="#FFDF00"/><stop offset="1" stop-color="#FF9370"/></linearGradient><linearGradient id="k" x1="119.913" x2="270.113" y1="259.344" y2="153.255" gradientUnits="userSpaceOnUse"><stop stop-color="#EC4C76"/><stop offset=".518" stop-color="#FEBB40"/><stop offset="1" stop-color="#fff"/></linearGradient><linearGradient id="l" x1="-25.768" x2="148.273" y1="169.573" y2="46.645" gradientUnits="userSpaceOnUse"><stop stop-color="#EC4C76"/><stop offset=".704" stop-color="#FEBB40"/><stop offset="1" stop-color="#fff"/></linearGradient><radialGradient id="c" cx="0" cy="0" r="1" gradientTransform="rotate(79.626 284.776 220.644) scale(1313.6 1235.52)" gradientUnits="userSpaceOnUse"><stop stop-color="#FEBB40"/><stop offset=".558" stop-color="#EC4C76"/><stop offset=".973" stop-color="#D60B52"/></radialGradient><radialGradient id="e" cx="0" cy="0" r="1" gradientTransform="rotate(-122.724 348.734 -85.886) scale(1401.84 2365.81)" gradientUnits="userSpaceOnUse"><stop stop-color="#FEBB40"/><stop offset=".558" stop-color="#EC4C76"/><stop offset=".973" stop-color="#D60B52"/></radialGradient><radialGradient id="h" cx="0" cy="0" r="1" gradientTransform="matrix(215.25674 1186.91869 -1106.58905 200.68834 284.764 -77.07)" gradientUnits="userSpaceOnUse"><stop stop-color="#FEBB40"/><stop offset=".558" stop-color="#EC4C76"/><stop offset=".973" stop-color="#D60B52"/></radialGradient><radialGradient id="j" cx="0" cy="0" r="1" gradientTransform="rotate(-122.48 259.178 -36.84) scale(1284.19 2158.72)" gradientUnits="userSpaceOnUse"><stop stop-color="#FEBB40"/><stop offset=".558" stop-color="#EC4C76"/><stop offset=".973" stop-color="#D60B52"/></radialGradient><clipPath id="a"><path fill="#fff" d="M521 16h511v393H521z"/></clipPath><clipPath id="f"><path fill="#fff" d="M814 0H-364v538H814z"/></clipPath></defs></svg>