<svg xmlns="http://www.w3.org/2000/svg" width="768" height="1079" fill="none"><path fill="url(#a)" d="M12.624 1134.12c-254.062-146.589-166.061-549.474 42.97-695.37 78.339-54.575 173.927-83.617 269.539-82.909 86.231.824 195.702 16.522 278.523-27.124 62.696-33.327 85.339-99.286 112.795-160.098C792.632-.524 1030.14-59.638 1168.36 74.649c51.02 49.545 78.49 123.925 65.22 193.944-31.58 162.586-210.54 116.851-296.834 212.602-34.429 38.185-36.45 106.292-53.542 153.818-17.48 48.617-40.355 95.813-65.541 141.207-52.885 95.796-120.605 185.596-202.374 258.86-163.024 146.48-381.583 211.08-585.843 108.44-5.586-2.96-11.172-5.92-16.822-9.4Z"/><defs><radialGradient id="a" cx="0" cy="0" r="1" gradientTransform="rotate(-129.53 437.404 -141.173) scale(1705.4 2866.93)" gradientUnits="userSpaceOnUse"><stop stop-color="#FEBB40"/><stop offset=".558" stop-color="#EC4C76"/><stop offset=".973" stop-color="#D60B52"/></radialGradient></defs></svg>