<svg xmlns="http://www.w3.org/2000/svg" width="60" height="60" fill="none"><g filter="url(#a)"><g filter="url(#b)"><path fill="#23C2EF" d="M37.773 3a2 2 0 0 0-2 2v3.519a2 2 0 0 0 2 2h6.258L33.147 21.263a19.539 19.539 0 0 0-10.603-3.104C11.75 18.159 3 26.853 3 37.579 3 48.304 11.75 57 22.544 57c10.793 0 19.541-8.696 19.541-19.421 0-4.077-1.263-7.86-3.423-10.984L49.363 15.96v6.134a2 2 0 0 0 2 2h3.566c1.105 0 2-.895 2.002-2 .01-5.473.058-11.633.067-17.095C57 3.895 56.105 3 55 3H37.773Zm-15.23 22.976c6.45 0 11.676 5.194 11.676 11.603 0 6.408-5.227 11.604-11.675 11.604-6.45 0-11.678-5.196-11.678-11.604 0-6.409 5.229-11.603 11.678-11.603Z"/></g></g><defs><filter id="a" width="61" height="65" x="-1" y="-3" color-interpolation-filters="sRGB" filterUnits="userSpaceOnUse"><feFlood flood-opacity="0" result="BackgroundImageFix"/><feBlend in="SourceGraphic" in2="BackgroundImageFix" result="shape"/><feColorMatrix in="SourceAlpha" result="hardAlpha" values="0 0 0 0 0 0 0 0 0 0 0 0 0 0 0 0 0 0 127 0"/><feOffset dy="-3"/><feGaussianBlur stdDeviation="2"/><feComposite in2="hardAlpha" k2="-1" k3="1" operator="arithmetic"/><feColorMatrix values="0 0 0 0 0 0 0 0 0 0 0 0 0 0 0 0 0 0 0.25 0"/><feBlend in2="shape" result="effect1_innerShadow_65_1563"/><feColorMatrix in="SourceAlpha" result="hardAlpha" values="0 0 0 0 0 0 0 0 0 0 0 0 0 0 0 0 0 0 127 0"/><feOffset dx="-1" dy="2"/><feGaussianBlur stdDeviation="1.5"/><feComposite in2="hardAlpha" k2="-1" k3="1" operator="arithmetic"/><feColorMatrix values="0 0 0 0 1 0 0 0 0 1 0 0 0 0 1 0 0 0 0.57 0"/><feBlend in2="effect1_innerShadow_65_1563" result="effect2_innerShadow_65_1563"/></filter><filter id="b" width="54.998" height="59" x="2" y="0" color-interpolation-filters="sRGB" filterUnits="userSpaceOnUse"><feFlood flood-opacity="0" result="BackgroundImageFix"/><feBlend in="SourceGraphic" in2="BackgroundImageFix" result="shape"/><feColorMatrix in="SourceAlpha" result="hardAlpha" values="0 0 0 0 0 0 0 0 0 0 0 0 0 0 0 0 0 0 127 0"/><feOffset dy="-3"/><feGaussianBlur stdDeviation="2"/><feComposite in2="hardAlpha" k2="-1" k3="1" operator="arithmetic"/><feColorMatrix values="0 0 0 0 0 0 0 0 0 0 0 0 0 0 0 0 0 0 0.25 0"/><feBlend in2="shape" result="effect1_innerShadow_65_1563"/><feColorMatrix in="SourceAlpha" result="hardAlpha" values="0 0 0 0 0 0 0 0 0 0 0 0 0 0 0 0 0 0 127 0"/><feOffset dx="-1" dy="2"/><feGaussianBlur stdDeviation="1.5"/><feComposite in2="hardAlpha" k2="-1" k3="1" operator="arithmetic"/><feColorMatrix values="0 0 0 0 1 0 0 0 0 1 0 0 0 0 1 0 0 0 0.57 0"/><feBlend in2="effect1_innerShadow_65_1563" result="effect2_innerShadow_65_1563"/></filter></defs></svg>