<svg aria-hidden="true" style="position: absolute; width: 0; height: 0; overflow: hidden;" version="1.1" xmlns="http://www.w3.org/2000/svg" xmlns:xlink="http://www.w3.org/1999/xlink">
    <defs>
        <symbol id="addPet-icon" viewBox="0 0 32 32">
            <path fill="none" stroke="#fff" style="stroke: var(--color1, #fff)" stroke-linejoin="miter" stroke-linecap="round" stroke-miterlimit="4" stroke-width="2.6667" d="M16.010 26.684v-10.674M16.010 16.010v-10.674M16.010 16.010h10.674M16.010 16.010h-10.674"></path>
        </symbol>
        <symbol id="addPhoto-icon" viewBox="0 0 32 32">
            <path stroke-linejoin="miter" stroke-linecap="round" stroke-miterlimit="4" stroke-width="1.2308" d="M16.002 30.771v-14.771M16.002 16v-14.771M16.002 16h15.002M16.002 16h-15.002"></path>
        </symbol>
        <symbol id="camera-icon" viewBox="0 0 32 32">
            <path fill="#f59256" style="fill: var(--color2, #f59256)" d="M16 12.333c-2.393 0-4.334 1.94-4.334 4.334s1.94 4.334 4.334 4.334v0c2.393 0 4.334-1.94 4.334-4.334s-1.94-4.334-4.334-4.334v0z"></path>
            <path fill="#f59256" style="fill: var(--color2, #f59256)" d="M12.333 0.333c-1.84 0-3.333 1.493-3.333 3.334v0.237c0 0.605-0.491 1.096-1.096 1.096v0c-3.445 0.001-6.237 2.794-6.237 6.238v0 6.147c0 2.138 0 3.814 0.128 5.152 0.128 1.366 0.397 2.483 1.002 3.469 0.643 1.037 1.493 1.887 2.499 2.511l0.033 0.019c0.984 0.605 2.102 0.874 3.467 1.003 1.339 0.128 3.014 0.128 5.152 0.128h4.106c2.138 0 3.813 0 5.152-0.128 1.365-0.13 2.483-0.4 3.467-1.003 1.038-0.643 1.888-1.492 2.512-2.497l0.019-0.033c0.605-0.986 0.874-2.104 1.003-3.469 0.128-1.338 0.128-3.014 0.128-5.152v-6.147c0-0 0-0.001 0-0.002 0-3.445-2.793-6.238-6.238-6.238-0.001 0-0.001 0-0.002 0h0c-0.604 0-1.094-0.49-1.094-1.094v0-0.237c0-1.842-1.493-3.334-3.333-3.334h-7.334zM9.667 16.667c0-3.498 2.835-6.333 6.333-6.333s6.333 2.835 6.333 6.333v0c0 3.497-2.835 6.333-6.333 6.333s-6.333-2.835-6.333-6.333v0zM24 12.667c-0.737 0-1.334-0.597-1.334-1.334s0.597-1.334 1.334-1.334v0c0.737 0 1.334 0.597 1.334 1.334s-0.597 1.334-1.334 1.334v0z"></path>
        </symbol>
        <symbol id="delete-icon" viewBox="0 0 32 32">
            <path d="M14.009 6.004h4.003c0-1.105-0.896-2.001-2.001-2.001s-2.001 0.896-2.001 2.001v0zM12.008 6.004c0-2.211 1.792-4.003 4.003-4.003s4.003 1.792 4.003 4.003v0h8.005c0.553 0 1.001 0.448 1.001 1.001s-0.448 1.001-1.001 1.001v0h-1.129l-2.412 17.688c-0.345 2.457-2.432 4.326-4.957 4.327h-7.021c-2.524-0-4.612-1.87-4.954-4.3l-0.003-0.026-2.412-17.688h-1.129c-0.553 0-1.001-0.448-1.001-1.001s0.448-1.001 1.001-1.001v0h8.005zM14.009 13.008c0-0.553-0.448-1.001-1.001-1.001s-1.001 0.448-1.001 1.001v0 10.007c0 0.553 0.448 1.001 1.001 1.001s1.001-0.448 1.001-1.001v0-10.007zM19.012 12.008c-0.553 0-1.001 0.448-1.001 1.001v0 10.007c0 0.553 0.448 1.001 1.001 1.001s1.001-0.448 1.001-1.001v0-10.007c0-0.553-0.448-1.001-1.001-1.001v0z"></path>
        </symbol>
        <symbol id="female-icon" viewBox="0 0 32 32">
            <path fill="#ff8787" style="fill: var(--color3, #ff8787)" d="M16 0c-5.676 0-10.279 4.603-10.279 10.279 0 4.7 3.157 8.665 7.465 9.889 0.492 0.14 0.857 0.573 0.857 1.084v1.362c0 0.589-0.478 1.067-1.067 1.067v0h-2.275c-0.589 0-1.067 0.478-1.067 1.067v0 1.78c0 0.589 0.478 1.067 1.067 1.067v0h2.275c0.589 0 1.067 0.478 1.067 1.067v0 2.273c0 0.589 0.478 1.067 1.067 1.067v0h1.78c0.589 0 1.067-0.478 1.067-1.067v0-2.273c0-0.589 0.478-1.067 1.067-1.067v0h2.275c0.589 0 1.067-0.478 1.067-1.067v0-1.78c0-0.589-0.478-1.067-1.067-1.067v0h-2.275c-0.589 0-1.067-0.478-1.067-1.067v0-2.242c4.741-0.914 8.323-5.085 8.323-10.093 0-5.676-4.603-10.279-10.279-10.279zM16 4.087c3.42 0 6.192 2.772 6.192 6.192 0 3.419-2.772 6.191-6.192 6.191s-6.191-2.772-6.191-6.191 2.772-6.192 6.192-6.192z"></path>
        </symbol>
        <symbol id="like0-icon" viewBox="0 0 32 32">
            <path fill="#fff" style="fill: var(--color1, #fff)" opacity="0.6" d="M8.617 2.469c-4.078 0-7.386 3.365-7.386 7.516 0 3.352 1.292 11.306 14.016 19.347 0.214 0.136 0.476 0.217 0.756 0.217s0.541-0.081 0.762-0.22l-0.006 0.003c12.723-8.042 14.016-15.995 14.016-19.347 0-4.151-3.308-7.516-7.386-7.516s-7.386 4.555-7.386 4.555-3.308-4.555-7.386-4.555z"></path>
            <path fill="none" stroke="#f59256" style="stroke: var(--color2, #f59256)" stroke-linejoin="round" stroke-linecap="round" stroke-miterlimit="4" stroke-width="2.4615" d="M8.617 2.469c-4.078 0-7.386 3.365-7.386 7.516 0 3.352 1.292 11.306 14.016 19.347 0.214 0.136 0.476 0.217 0.756 0.217s0.541-0.081 0.762-0.22l-0.006 0.003c12.723-8.042 14.016-15.995 14.016-19.347 0-4.151-3.308-7.516-7.386-7.516s-7.386 4.555-7.386 4.555-3.308-4.555-7.386-4.555z"></path>
        </symbol>
        <symbol id="like1-icon" viewBox="0 0 32 32">
            <path fill="#f59256" style="fill: var(--color2, #f59256); stroke: var(--color2, #f59256)" stroke="#f59256" stroke-linejoin="round" stroke-linecap="round" stroke-miterlimit="4" stroke-width="3.7647" d="M9.731 4.704c-3.467 0-6.279 2.782-6.279 6.215 0 2.77 1.1 9.346 11.913 15.994 0.183 0.113 0.405 0.18 0.642 0.18s0.459-0.067 0.648-0.183l-0.005 0.003c10.813-6.648 11.913-13.224 11.913-15.994 0-3.433-2.812-6.215-6.279-6.215-3.465 0-6.277 3.766-6.277 3.766s-2.812-3.766-6.277-3.766z"></path>
        </symbol>
        <symbol id="like2-icon" viewBox="0 0 32 32">
            <path stroke-linejoin="round" stroke-linecap="round" stroke-miterlimit="4" stroke-width="3.7647" d="M9.731 4.704c-3.467 0-6.279 2.782-6.279 6.215 0 2.77 1.1 9.346 11.913 15.994 0.183 0.113 0.405 0.18 0.642 0.18s0.459-0.067 0.648-0.183l-0.005 0.003c10.813-6.648 11.913-13.224 11.913-15.994 0-3.433-2.812-6.215-6.279-6.215-3.465 0-6.277 3.766-6.277 3.766s-2.812-3.766-6.277-3.766z"></path>
        </symbol>
        <symbol id="logout-icon" viewBox="0 0 32 32">
            <path fill="#f59256" style="fill: var(--color2, #f59256); stroke: var(--color2, #f59256)" opacity="0.6" stroke="#f59256" stroke-linejoin="miter" stroke-linecap="butt" stroke-miterlimit="4" stroke-width="3.5556" d="M27.047 19.828v-0.002z"></path>
        </symbol>
        <symbol id="male-icon" viewBox="0 0 32 32">
            <path fill="#23c2ef" style="fill: var(--color4, #23c2ef)" d="M20.146 1.6c-0.589 0-1.067 0.478-1.067 1.067v0 1.877c0 0.589 0.478 1.067 1.067 1.067v0h3.338l-5.805 5.73c-1.593-1.038-3.542-1.655-5.636-1.655-0.007 0-0.013 0-0.020 0h0.001c-5.757 0-10.423 4.637-10.423 10.357s4.667 10.358 10.423 10.358c5.756 0 10.422-4.638 10.422-10.358 0-2.174-0.674-4.192-1.826-5.858l5.707-5.672v3.271c0 0.589 0.478 1.067 1.067 1.067v0h1.902c0.589 0 1.067-0.477 1.068-1.067 0.005-2.919 0.031-6.204 0.036-9.117 0.001-0.589-0.476-1.066-1.066-1.066h-9.188zM12.023 13.854c3.44 0 6.227 2.77 6.227 6.188s-2.788 6.189-6.227 6.189c-3.44 0-6.228-2.771-6.228-6.189s2.789-6.188 6.228-6.188z"></path>
        </symbol>
        <symbol id="menu-icon" viewBox="0 0 32 32">
            <path d="M4 24h24v-2.666h-24v2.666zM4 17.334h24v-2.667h-24v2.667zM4 8v2.666h24v-2.666h-24z"></path>
        </symbol>
        <symbol id="pencil-icon" viewBox="0 0 32 32">
            <path d="M5.893 27.438c-0.389-0.001-0.738-0.168-0.981-0.434l-0.001-0.001c-0.22-0.235-0.356-0.552-0.356-0.901 0-0.041 0.002-0.082 0.006-0.122l-0 0.005 0.326-3.592 15.091-15.086 4.715 4.715-15.086 15.085-3.592 0.326c-0.033 0.003-0.072 0.005-0.111 0.005-0.004 0-0.007 0-0.011-0h0.001zM25.635 11.080l-4.715-4.715 2.829-2.827c0.241-0.242 0.575-0.391 0.943-0.391s0.702 0.15 0.943 0.391l2.827 2.827c0.242 0.242 0.391 0.575 0.391 0.944s-0.15 0.702-0.391 0.944l-2.827 2.826z"></path>
        </symbol>
        <symbol id="search-icon" viewBox="0 0 32 32">
            <path d="M20.68 18.679h-1.054l-0.374-0.36c1.302-1.503 2.095-3.478 2.095-5.638 0-0.002 0-0.004 0-0.006v0c0-4.79-3.883-8.672-8.672-8.672s-8.672 3.883-8.672 8.672c0 4.79 3.883 8.672 8.672 8.672v0c2.148 0 4.123-0.787 5.644-2.095l0.36 0.374v1.054l6.671 6.658 1.988-1.988-6.658-6.671zM12.675 18.679c-3.322 0-6.004-2.682-6.004-6.004s2.682-6.004 6.004-6.004 6.004 2.682 6.004 6.004-2.682 6.004-6.004 6.004z"></path>
        </symbol>
        <symbol id="close-icon" viewBox="0 0 32 32">
            <path d="M18.193 15.999l12.896-12.896c0.255-0.298 0.388-0.68 0.373-1.072s-0.178-0.763-0.455-1.040-0.648-0.439-1.040-0.454c-0.392-0.015-0.774 0.118-1.072 0.373l-12.895 12.896-12.896-12.911c-0.293-0.293-0.69-0.457-1.104-0.457s-0.812 0.165-1.104 0.457c-0.293 0.293-0.457 0.69-0.457 1.104s0.165 0.812 0.457 1.104l12.911 12.896-12.911 12.896c-0.163 0.139-0.295 0.311-0.388 0.504s-0.146 0.403-0.154 0.617c-0.008 0.214 0.028 0.428 0.106 0.628s0.197 0.381 0.348 0.532c0.152 0.152 0.333 0.27 0.532 0.348s0.413 0.114 0.627 0.106c0.214-0.008 0.424-0.061 0.617-0.154s0.365-0.226 0.504-0.388l12.911-12.896 12.895 12.896c0.298 0.255 0.68 0.388 1.072 0.373s0.763-0.177 1.040-0.454 0.439-0.648 0.455-1.040c0.015-0.391-0.118-0.774-0.373-1.072l-12.896-12.896z"></path>
        </symbol>
        <symbol id="addPet-modal" viewBox="0 0 32 32">
            <path stroke-linejoin="miter" stroke-linecap="round" stroke-miterlimit="4" stroke-width="1.2549" d="M16 30.849v-14.85M16 16v-14.85M16 16h14.85M16 16h-14.85"></path>
        </symbol>
    </defs>
</svg>